# xmcd
#
# Track frame offsets: 
#        200
#        13777
#        46617
#        61615
#        84990
#        106220
#        122065
#        140270
#        159982
#        173235
#
# Disc length: 2688 seconds
#
# Revision: 5
# Processed by: cddbd v1.5.2PL0 Copyright (c) Steve Scherf et al.
# Submitted via: ExactAudioCopy v1.1
#
DISCID=6d0a7e0a
DTITLE=Various Artist - We're Not Jivin', We're Jammin'
DYEAR=1991
DGENRE=Blues
TTITLE0=Albert Collins - Travellin' South
TTITLE1=Albert Colllins ft Gary Moore - Cold Cold Feeling
TTITLE2=Larry McCray - I Don't Mind
TTITLE3=Larry McCray - Walk Right In (Live)
TTITLE4=The Kinsey Report - Image Maker
TTITLE5=The Kinsey Report - Bad Talkin'
TTITLE6=Walter Wolfman Washington - Ain't No Love In The Heart Of The 
TTITLE6=City
TTITLE7=Walter Wolfman Washington - I'll Be Good
TTITLE8=Johnny Winter - Sugaree
TTITLE9=Johnny Winter - Life Is Hard
EXTD=
EXTT0=
EXTT1=
EXTT2=
EXTT3=
EXTT4=
EXTT5=
EXTT6=
EXTT7=
EXTT8=
EXTT9=
PLAYORDER=
